<svg width="443" height="262" viewBox="0 0 443 262" fill="none" preserveAspectRatio="xMidYMin slice" xmlns="http://www.w3.org/2000/svg">
<g opacity="0.1">
<g clip-path="url(#clip0)">
<g clip-path="url(#clip1)">
<mask id="path-4-inside-1" fill="white">
<path d="M0 198.956H15.4396V178.226H20.7712L30.7681 198.956H47.5406L35.9886 175.528C42.0423 172.308 45.6523 166.206 45.6523 157.497C45.6523 144.127 37.1827 136.154 24.5478 136.154H0V198.956ZM15.4396 164.979V149.769H20.8823C26.2973 149.769 29.5462 152.1 29.5462 157.497C29.5462 162.863 26.2973 164.979 20.8823 164.979H15.4396Z"/>
<path d="M89.0175 136.154V174.915C89.0175 180.772 85.2131 184.973 79.9092 184.973C74.6053 184.973 70.801 180.772 70.801 174.915V136.154H55.3614V176.386C55.3614 190.738 65.1917 199.692 79.9092 199.692C94.5157 199.692 104.457 190.738 104.457 176.386V136.154H89.0175Z"/>
<path d="M114.923 198.956H153.355V185.218H130.362V136.154H114.923V198.956Z"/>
<path d="M162.724 198.956H203.6V185.218H178.164V174.424H201.601V160.686H178.164V149.892H203.711V136.154H162.724V198.956Z"/>
<path d="M214.496 198.956H229.936V178.226H235.268L245.265 198.956H262.037L250.485 175.528C256.539 172.308 260.149 166.206 260.149 157.497C260.149 144.127 251.679 136.154 239.044 136.154H214.496V198.956ZM229.936 164.979V149.769H235.379C240.794 149.769 244.043 152.1 244.043 157.497C244.043 162.863 240.794 164.979 235.379 164.979H229.936Z"/>
<path d="M303.514 136.154V174.915C303.514 180.772 299.71 184.973 294.406 184.973C289.102 184.973 285.297 180.772 285.297 174.915V136.154H269.858V176.386C269.858 190.738 279.688 199.692 294.406 199.692C309.012 199.692 318.954 190.738 318.954 176.386V136.154H303.514Z"/>
<path d="M329.419 198.956H367.852V185.218H344.859V136.154H329.419V198.956Z"/>
<path d="M377.221 198.956H418.097V185.218H392.66V174.424H416.097V160.686H392.66V149.892H418.208V136.154H377.221V198.956Z"/>
<path d="M428.993 198.956H444.433V178.226H449.764L459.761 198.956H476.534L464.982 175.528C471.035 172.308 474.645 166.206 474.645 157.497C474.645 144.127 466.176 136.154 453.541 136.154H428.993V198.956ZM444.433 164.979V149.769H449.875C455.29 149.769 458.539 152.1 458.539 157.497C458.539 162.863 455.29 164.979 449.875 164.979H444.433Z"/>
</mask>
<path d="M0 198.956H15.4396V178.226H20.7712L30.7681 198.956H47.5406L35.9886 175.528C42.0423 172.308 45.6523 166.206 45.6523 157.497C45.6523 144.127 37.1827 136.154 24.5478 136.154H0V198.956ZM15.4396 164.979V149.769H20.8823C26.2973 149.769 29.5462 152.1 29.5462 157.497C29.5462 162.863 26.2973 164.979 20.8823 164.979H15.4396Z" stroke="white" stroke-width="2" mask="url(#path-4-inside-1)"/>
<path d="M89.0175 136.154V174.915C89.0175 180.772 85.2131 184.973 79.9092 184.973C74.6053 184.973 70.801 180.772 70.801 174.915V136.154H55.3614V176.386C55.3614 190.738 65.1917 199.692 79.9092 199.692C94.5157 199.692 104.457 190.738 104.457 176.386V136.154H89.0175Z" stroke="white" stroke-width="2" mask="url(#path-4-inside-1)"/>
<path d="M114.923 198.956H153.355V185.218H130.362V136.154H114.923V198.956Z" stroke="white" stroke-width="2" mask="url(#path-4-inside-1)"/>
<path d="M162.724 198.956H203.6V185.218H178.164V174.424H201.601V160.686H178.164V149.892H203.711V136.154H162.724V198.956Z" stroke="white" stroke-width="2" mask="url(#path-4-inside-1)"/>
<path d="M214.496 198.956H229.936V178.226H235.268L245.265 198.956H262.037L250.485 175.528C256.539 172.308 260.149 166.206 260.149 157.497C260.149 144.127 251.679 136.154 239.044 136.154H214.496V198.956ZM229.936 164.979V149.769H235.379C240.794 149.769 244.043 152.1 244.043 157.497C244.043 162.863 240.794 164.979 235.379 164.979H229.936Z" stroke="white" stroke-width="2" mask="url(#path-4-inside-1)"/>
<path d="M303.514 136.154V174.915C303.514 180.772 299.71 184.973 294.406 184.973C289.102 184.973 285.297 180.772 285.297 174.915V136.154H269.858V176.386C269.858 190.738 279.688 199.692 294.406 199.692C309.012 199.692 318.954 190.738 318.954 176.386V136.154H303.514Z" stroke="white" stroke-width="2" mask="url(#path-4-inside-1)"/>
<path d="M329.419 198.956H367.852V185.218H344.859V136.154H329.419V198.956Z" stroke="white" stroke-width="2" mask="url(#path-4-inside-1)"/>
<path d="M377.221 198.956H418.097V185.218H392.66V174.424H416.097V160.686H392.66V149.892H418.208V136.154H377.221V198.956Z" stroke="white" stroke-width="2" mask="url(#path-4-inside-1)"/>
<path d="M428.993 198.956H444.433V178.226H449.764L459.761 198.956H476.534L464.982 175.528C471.035 172.308 474.645 166.206 474.645 157.497C474.645 144.127 466.176 136.154 453.541 136.154H428.993V198.956ZM444.433 164.979V149.769H449.875C455.29 149.769 458.539 152.1 458.539 157.497C458.539 162.863 455.29 164.979 449.875 164.979H444.433Z" stroke="white" stroke-width="2" mask="url(#path-4-inside-1)"/>
<mask id="path-6-inside-2" fill="white">
<path d="M0 291.11H15.4396V270.38H20.7712L30.7681 291.11H47.5406L35.9886 267.682C42.0423 264.462 45.6523 258.36 45.6523 249.651C45.6523 236.281 37.1827 228.308 24.5478 228.308H0V291.11ZM15.4396 257.133V241.923H20.8823C26.2973 241.923 29.5462 244.254 29.5462 249.651C29.5462 255.017 26.2973 257.133 20.8823 257.133H15.4396Z"/>
<path d="M89.0175 228.308V267.069C89.0175 272.926 85.2131 277.127 79.9092 277.127C74.6053 277.127 70.801 272.926 70.801 267.069V228.308H55.3614V268.541C55.3614 282.892 65.1917 291.846 79.9092 291.846C94.5157 291.846 104.457 282.892 104.457 268.541V228.308H89.0175Z"/>
<path d="M114.923 291.11H153.355V277.372H130.362V228.308H114.923V291.11Z"/>
<path d="M162.724 291.11H203.6V277.372H178.164V266.578H201.601V252.84H178.164V242.046H203.711V228.308H162.724V291.11Z"/>
<path d="M214.496 291.11H229.936V270.38H235.268L245.265 291.11H262.037L250.485 267.682C256.539 264.462 260.149 258.36 260.149 249.651C260.149 236.281 251.679 228.308 239.044 228.308H214.496V291.11ZM229.936 257.133V241.923H235.379C240.794 241.923 244.043 244.254 244.043 249.651C244.043 255.017 240.794 257.133 235.379 257.133H229.936Z"/>
<path d="M303.514 228.308V267.069C303.514 272.926 299.71 277.127 294.406 277.127C289.102 277.127 285.297 272.926 285.297 267.069V228.308H269.858V268.541C269.858 282.892 279.688 291.846 294.406 291.846C309.012 291.846 318.954 282.892 318.954 268.541V228.308H303.514Z"/>
<path d="M329.419 291.11H367.852V277.372H344.859V228.308H329.419V291.11Z"/>
<path d="M377.221 291.11H418.097V277.372H392.66V266.578H416.097V252.84H392.66V242.046H418.208V228.308H377.221V291.11Z"/>
<path d="M428.993 291.11H444.433V270.38H449.764L459.761 291.11H476.534L464.982 267.682C471.035 264.462 474.645 258.36 474.645 249.651C474.645 236.281 466.176 228.308 453.541 228.308H428.993V291.11ZM444.433 257.133V241.923H449.875C455.29 241.923 458.539 244.254 458.539 249.651C458.539 255.017 455.29 257.133 449.875 257.133H444.433Z"/>
</mask>
<path d="M0 291.11H15.4396V270.38H20.7712L30.7681 291.11H47.5406L35.9886 267.682C42.0423 264.462 45.6523 258.36 45.6523 249.651C45.6523 236.281 37.1827 228.308 24.5478 228.308H0V291.11ZM15.4396 257.133V241.923H20.8823C26.2973 241.923 29.5462 244.254 29.5462 249.651C29.5462 255.017 26.2973 257.133 20.8823 257.133H15.4396Z" stroke="white" stroke-width="2" mask="url(#path-6-inside-2)"/>
<path d="M89.0175 228.308V267.069C89.0175 272.926 85.2131 277.127 79.9092 277.127C74.6053 277.127 70.801 272.926 70.801 267.069V228.308H55.3614V268.541C55.3614 282.892 65.1917 291.846 79.9092 291.846C94.5157 291.846 104.457 282.892 104.457 268.541V228.308H89.0175Z" stroke="white" stroke-width="2" mask="url(#path-6-inside-2)"/>
<path d="M114.923 291.11H153.355V277.372H130.362V228.308H114.923V291.11Z" stroke="white" stroke-width="2" mask="url(#path-6-inside-2)"/>
<path d="M162.724 291.11H203.6V277.372H178.164V266.578H201.601V252.84H178.164V242.046H203.711V228.308H162.724V291.11Z" stroke="white" stroke-width="2" mask="url(#path-6-inside-2)"/>
<path d="M214.496 291.11H229.936V270.38H235.268L245.265 291.11H262.037L250.485 267.682C256.539 264.462 260.149 258.36 260.149 249.651C260.149 236.281 251.679 228.308 239.044 228.308H214.496V291.11ZM229.936 257.133V241.923H235.379C240.794 241.923 244.043 244.254 244.043 249.651C244.043 255.017 240.794 257.133 235.379 257.133H229.936Z" stroke="white" stroke-width="2" mask="url(#path-6-inside-2)"/>
<path d="M303.514 228.308V267.069C303.514 272.926 299.71 277.127 294.406 277.127C289.102 277.127 285.297 272.926 285.297 267.069V228.308H269.858V268.541C269.858 282.892 279.688 291.846 294.406 291.846C309.012 291.846 318.954 282.892 318.954 268.541V228.308H303.514Z" stroke="white" stroke-width="2" mask="url(#path-6-inside-2)"/>
<path d="M329.419 291.11H367.852V277.372H344.859V228.308H329.419V291.11Z" stroke="white" stroke-width="2" mask="url(#path-6-inside-2)"/>
<path d="M377.221 291.11H418.097V277.372H392.66V266.578H416.097V252.84H392.66V242.046H418.208V228.308H377.221V291.11Z" stroke="white" stroke-width="2" mask="url(#path-6-inside-2)"/>
<path d="M428.993 291.11H444.433V270.38H449.764L459.761 291.11H476.534L464.982 267.682C471.035 264.462 474.645 258.36 474.645 249.651C474.645 236.281 466.176 228.308 453.541 228.308H428.993V291.11ZM444.433 257.133V241.923H449.875C455.29 241.923 458.539 244.254 458.539 249.651C458.539 255.017 455.29 257.133 449.875 257.133H444.433Z" stroke="white" stroke-width="2" mask="url(#path-6-inside-2)"/>
</g>
<g clip-path="url(#clip2)">
<mask id="path-9-inside-3" fill="white">
<path d="M163 62.9559H178.44V42.2264H183.771L193.768 62.9559H210.541L198.989 39.5279C205.042 36.308 208.652 30.2057 208.652 21.4969C208.652 8.12695 200.183 0.154053 187.548 0.154053H163V62.9559ZM178.44 28.9791V13.7693H183.882C189.297 13.7693 192.546 16.0998 192.546 21.4969C192.546 26.8632 189.297 28.9791 183.882 28.9791H178.44Z"/>
<path d="M252.017 0.154053V38.9146C252.017 44.7716 248.213 48.9727 242.909 48.9727C237.605 48.9727 233.801 44.7716 233.801 38.9146V0.154053H218.361V40.3865C218.361 54.7377 228.192 63.6919 242.909 63.6919C257.516 63.6919 267.457 54.7377 267.457 40.3865V0.154053H252.017Z"/>
<path d="M277.923 62.9559H316.355V49.218H293.362V0.154053H277.923V62.9559Z"/>
<path d="M325.724 62.9559H366.6V49.218H341.164V38.4239H364.601V24.686H341.164V13.892H366.711V0.154053H325.724V62.9559Z"/>
<path d="M377.496 62.9559H392.936V42.2264H398.268L408.265 62.9559H425.037L413.485 39.5279C419.539 36.308 423.149 30.2057 423.149 21.4969C423.149 8.12695 414.679 0.154053 402.044 0.154053H377.496V62.9559ZM392.936 28.9791V13.7693H398.379C403.794 13.7693 407.043 16.0998 407.043 21.4969C407.043 26.8632 403.794 28.9791 398.379 28.9791H392.936Z"/>
<path d="M466.514 0.154053V38.9146C466.514 44.7716 462.71 48.9727 457.406 48.9727C452.102 48.9727 448.297 44.7716 448.297 38.9146V0.154053H432.858V40.3865C432.858 54.7377 442.688 63.6919 457.406 63.6919C472.012 63.6919 481.954 54.7377 481.954 40.3865V0.154053H466.514Z"/>
<path d="M492.419 62.9559H530.852V49.218H507.859V0.154053H492.419V62.9559Z"/>
<path d="M540.221 62.9559H581.097V49.218H555.66V38.4239H579.097V24.686H555.66V13.892H581.208V0.154053H540.221V62.9559Z"/>
<path d="M591.993 62.9559H607.433V42.2264H612.764L622.761 62.9559H639.534L627.982 39.5279C634.035 36.308 637.645 30.2057 637.645 21.4969C637.645 8.12695 629.176 0.154053 616.541 0.154053H591.993V62.9559ZM607.433 28.9791V13.7693H612.875C618.29 13.7693 621.539 16.0998 621.539 21.4969C621.539 26.8632 618.29 28.9791 612.875 28.9791H607.433Z"/>
</mask>
<path d="M163 62.9559H178.44V42.2264H183.771L193.768 62.9559H210.541L198.989 39.5279C205.042 36.308 208.652 30.2057 208.652 21.4969C208.652 8.12695 200.183 0.154053 187.548 0.154053H163V62.9559ZM178.44 28.9791V13.7693H183.882C189.297 13.7693 192.546 16.0998 192.546 21.4969C192.546 26.8632 189.297 28.9791 183.882 28.9791H178.44Z" stroke="white" stroke-width="2" mask="url(#path-9-inside-3)"/>
<path d="M252.017 0.154053V38.9146C252.017 44.7716 248.213 48.9727 242.909 48.9727C237.605 48.9727 233.801 44.7716 233.801 38.9146V0.154053H218.361V40.3865C218.361 54.7377 228.192 63.6919 242.909 63.6919C257.516 63.6919 267.457 54.7377 267.457 40.3865V0.154053H252.017Z" stroke="white" stroke-width="2" mask="url(#path-9-inside-3)"/>
<path d="M277.923 62.9559H316.355V49.218H293.362V0.154053H277.923V62.9559Z" stroke="white" stroke-width="2" mask="url(#path-9-inside-3)"/>
<path d="M325.724 62.9559H366.6V49.218H341.164V38.4239H364.601V24.686H341.164V13.892H366.711V0.154053H325.724V62.9559Z" stroke="white" stroke-width="2" mask="url(#path-9-inside-3)"/>
<path d="M377.496 62.9559H392.936V42.2264H398.268L408.265 62.9559H425.037L413.485 39.5279C419.539 36.308 423.149 30.2057 423.149 21.4969C423.149 8.12695 414.679 0.154053 402.044 0.154053H377.496V62.9559ZM392.936 28.9791V13.7693H398.379C403.794 13.7693 407.043 16.0998 407.043 21.4969C407.043 26.8632 403.794 28.9791 398.379 28.9791H392.936Z" stroke="white" stroke-width="2" mask="url(#path-9-inside-3)"/>
<path d="M466.514 0.154053V38.9146C466.514 44.7716 462.71 48.9727 457.406 48.9727C452.102 48.9727 448.297 44.7716 448.297 38.9146V0.154053H432.858V40.3865C432.858 54.7377 442.688 63.6919 457.406 63.6919C472.012 63.6919 481.954 54.7377 481.954 40.3865V0.154053H466.514Z" stroke="white" stroke-width="2" mask="url(#path-9-inside-3)"/>
<path d="M492.419 62.9559H530.852V49.218H507.859V0.154053H492.419V62.9559Z" stroke="white" stroke-width="2" mask="url(#path-9-inside-3)"/>
<path d="M540.221 62.9559H581.097V49.218H555.66V38.4239H579.097V24.686H555.66V13.892H581.208V0.154053H540.221V62.9559Z" stroke="white" stroke-width="2" mask="url(#path-9-inside-3)"/>
<path d="M591.993 62.9559H607.433V42.2264H612.764L622.761 62.9559H639.534L627.982 39.5279C634.035 36.308 637.645 30.2057 637.645 21.4969C637.645 8.12695 629.176 0.154053 616.541 0.154053H591.993V62.9559ZM607.433 28.9791V13.7693H612.875C618.29 13.7693 621.539 16.0998 621.539 21.4969C621.539 26.8632 618.29 28.9791 612.875 28.9791H607.433Z" stroke="white" stroke-width="2" mask="url(#path-9-inside-3)"/>
<mask id="path-11-inside-4" fill="white">
<path d="M163 155.11H178.44V134.38H183.771L193.768 155.11H210.541L198.989 131.682C205.042 128.462 208.652 122.36 208.652 113.651C208.652 100.281 200.183 92.3081 187.548 92.3081H163V155.11ZM178.44 121.133V105.923H183.882C189.297 105.923 192.546 108.254 192.546 113.651C192.546 119.017 189.297 121.133 183.882 121.133H178.44Z"/>
<path d="M252.017 92.3081V131.069C252.017 136.926 248.213 141.127 242.909 141.127C237.605 141.127 233.801 136.926 233.801 131.069V92.3081H218.361V132.541C218.361 146.892 228.192 155.846 242.909 155.846C257.516 155.846 267.457 146.892 267.457 132.541V92.3081H252.017Z"/>
<path d="M277.923 155.11H316.355V141.372H293.362V92.3081H277.923V155.11Z"/>
<path d="M325.724 155.11H366.6V141.372H341.164V130.578H364.601V116.84H341.164V106.046H366.711V92.3081H325.724V155.11Z"/>
<path d="M377.496 155.11H392.936V134.38H398.268L408.265 155.11H425.037L413.485 131.682C419.539 128.462 423.149 122.36 423.149 113.651C423.149 100.281 414.679 92.3081 402.044 92.3081H377.496V155.11ZM392.936 121.133V105.923H398.379C403.794 105.923 407.043 108.254 407.043 113.651C407.043 119.017 403.794 121.133 398.379 121.133H392.936Z"/>
<path d="M466.514 92.3081V131.069C466.514 136.926 462.71 141.127 457.406 141.127C452.102 141.127 448.297 136.926 448.297 131.069V92.3081H432.858V132.541C432.858 146.892 442.688 155.846 457.406 155.846C472.012 155.846 481.954 146.892 481.954 132.541V92.3081H466.514Z"/>
<path d="M492.419 155.11H530.852V141.372H507.859V92.3081H492.419V155.11Z"/>
<path d="M540.221 155.11H581.097V141.372H555.66V130.578H579.097V116.84H555.66V106.046H581.208V92.3081H540.221V155.11Z"/>
<path d="M591.993 155.11H607.433V134.38H612.764L622.761 155.11H639.534L627.982 131.682C634.035 128.462 637.645 122.36 637.645 113.651C637.645 100.281 629.176 92.3081 616.541 92.3081H591.993V155.11ZM607.433 121.133V105.923H612.875C618.29 105.923 621.539 108.254 621.539 113.651C621.539 119.017 618.29 121.133 612.875 121.133H607.433Z"/>
</mask>
<path d="M163 155.11H178.44V134.38H183.771L193.768 155.11H210.541L198.989 131.682C205.042 128.462 208.652 122.36 208.652 113.651C208.652 100.281 200.183 92.3081 187.548 92.3081H163V155.11ZM178.44 121.133V105.923H183.882C189.297 105.923 192.546 108.254 192.546 113.651C192.546 119.017 189.297 121.133 183.882 121.133H178.44Z" stroke="white" stroke-width="2" mask="url(#path-11-inside-4)"/>
<path d="M252.017 92.3081V131.069C252.017 136.926 248.213 141.127 242.909 141.127C237.605 141.127 233.801 136.926 233.801 131.069V92.3081H218.361V132.541C218.361 146.892 228.192 155.846 242.909 155.846C257.516 155.846 267.457 146.892 267.457 132.541V92.3081H252.017Z" stroke="white" stroke-width="2" mask="url(#path-11-inside-4)"/>
<path d="M277.923 155.11H316.355V141.372H293.362V92.3081H277.923V155.11Z" stroke="white" stroke-width="2" mask="url(#path-11-inside-4)"/>
<path d="M325.724 155.11H366.6V141.372H341.164V130.578H364.601V116.84H341.164V106.046H366.711V92.3081H325.724V155.11Z" stroke="white" stroke-width="2" mask="url(#path-11-inside-4)"/>
<path d="M377.496 155.11H392.936V134.38H398.268L408.265 155.11H425.037L413.485 131.682C419.539 128.462 423.149 122.36 423.149 113.651C423.149 100.281 414.679 92.3081 402.044 92.3081H377.496V155.11ZM392.936 121.133V105.923H398.379C403.794 105.923 407.043 108.254 407.043 113.651C407.043 119.017 403.794 121.133 398.379 121.133H392.936Z" stroke="white" stroke-width="2" mask="url(#path-11-inside-4)"/>
<path d="M466.514 92.3081V131.069C466.514 136.926 462.71 141.127 457.406 141.127C452.102 141.127 448.297 136.926 448.297 131.069V92.3081H432.858V132.541C432.858 146.892 442.688 155.846 457.406 155.846C472.012 155.846 481.954 146.892 481.954 132.541V92.3081H466.514Z" stroke="white" stroke-width="2" mask="url(#path-11-inside-4)"/>
<path d="M492.419 155.11H530.852V141.372H507.859V92.3081H492.419V155.11Z" stroke="white" stroke-width="2" mask="url(#path-11-inside-4)"/>
<path d="M540.221 155.11H581.097V141.372H555.66V130.578H579.097V116.84H555.66V106.046H581.208V92.3081H540.221V155.11Z" stroke="white" stroke-width="2" mask="url(#path-11-inside-4)"/>
<path d="M591.993 155.11H607.433V134.38H612.764L622.761 155.11H639.534L627.982 131.682C634.035 128.462 637.645 122.36 637.645 113.651C637.645 100.281 629.176 92.3081 616.541 92.3081H591.993V155.11ZM607.433 121.133V105.923H612.875C618.29 105.923 621.539 108.254 621.539 113.651C621.539 119.017 618.29 121.133 612.875 121.133H607.433Z" stroke="white" stroke-width="2" mask="url(#path-11-inside-4)"/>
</g>
</g>
</g>
<defs>
<clipPath id="clip0">
<rect width="443" height="262" fill="white"/>
</clipPath>
<clipPath id="clip1">
<rect y="136" width="477" height="128" fill="white"/>
</clipPath>
<clipPath id="clip2">
<rect x="163" width="477" height="128" fill="white"/>
</clipPath>
</defs>
</svg>
