<svg width="812" height="110" viewBox="0 0 812 110" fill="none" xmlns="http://www.w3.org/2000/svg">
<g opacity="0.1">
<path d="M1 107.749H27.2438V72.5135H36.3064L53.2988 107.749H81.8083L62.1726 67.9266C72.4625 62.4537 78.5986 52.0811 78.5986 37.278C78.5986 14.5521 64.2023 1 42.7258 1H1V107.749ZM27.2438 49.9961V24.1429H36.4952C45.6994 24.1429 51.222 28.1043 51.222 37.278C51.222 46.3996 45.6994 49.9961 36.4952 49.9961H27.2438Z" stroke="#17191C"/>
<path d="M152.31 1V66.8842C152.31 76.8398 145.843 83.9807 136.828 83.9807C127.812 83.9807 121.346 76.8398 121.346 66.8842V1H95.102V69.3861C95.102 93.7799 111.811 109 136.828 109C161.656 109 178.554 93.7799 178.554 69.3861V1H152.31Z" stroke="#17191C"/>
<path d="M196.343 107.749H261.669V84.3977H222.587V1H196.343V107.749Z" stroke="#17191C"/>
<path d="M277.595 107.749H347.075V84.3977H303.838V66.0502H343.676V42.6988H303.838V24.3514H347.263V1H277.595V107.749Z" stroke="#17191C"/>
<path d="M365.596 107.749H391.84V72.5135H400.902L417.895 107.749H446.404L426.768 67.9266C437.058 62.4537 443.194 52.0811 443.194 37.278C443.194 14.5521 428.798 1 407.322 1H365.596V107.749ZM391.84 49.9961V24.1429H401.091C410.295 24.1429 415.818 28.1043 415.818 37.278C415.818 46.3996 410.295 49.9961 401.091 49.9961H391.84Z" stroke="#17191C"/>
<path d="M516.906 1V66.8842C516.906 76.8398 510.439 83.9807 501.424 83.9807C492.408 83.9807 485.942 76.8398 485.942 66.8842V1H459.698V69.3861C459.698 93.7799 476.407 109 501.424 109C526.251 109 543.149 93.7799 543.149 69.3861V1H516.906Z" stroke="#17191C"/>
<path d="M560.939 107.749H626.265V84.3977H587.183V1H560.939V107.749Z" stroke="#17191C"/>
<path d="M642.191 107.749H711.671V84.3977H668.434V66.0502H708.272V42.6988H668.434V24.3514H711.859V1H642.191V107.749Z" stroke="#17191C"/>
<path d="M730.192 107.749H756.436V72.5135H765.498L782.491 107.749H811L791.364 67.9266C801.654 62.4537 807.79 52.0811 807.79 37.278C807.79 14.5521 793.394 1 771.918 1H730.192V107.749ZM756.436 49.9961V24.1429H765.687C774.891 24.1429 780.414 28.1043 780.414 37.278C780.414 46.3996 774.891 49.9961 765.687 49.9961H756.436Z" stroke="#17191C"/>
</g>
</svg>
