<svg width="477" height="64" viewBox="0 0 477 64" fill="none" xmlns="http://www.w3.org/2000/svg">
<mask id="path-2-inside-1" fill="white">
<path d="M0 62.9559H15.4396V42.2264H20.7712L30.7681 62.9559H47.5406L35.9886 39.5279C42.0423 36.308 45.6523 30.2057 45.6523 21.4969C45.6523 8.12695 37.1827 0.154053 24.5478 0.154053H0V62.9559ZM15.4396 28.9791V13.7693H20.8823C26.2973 13.7693 29.5462 16.0998 29.5462 21.4969C29.5462 26.8632 26.2973 28.9791 20.8823 28.9791H15.4396Z"/>
<path d="M89.0175 0.154053V38.9146C89.0175 44.7716 85.2131 48.9727 79.9092 48.9727C74.6053 48.9727 70.801 44.7716 70.801 38.9146V0.154053H55.3614V40.3865C55.3614 54.7377 65.1917 63.6919 79.9092 63.6919C94.5157 63.6919 104.457 54.7377 104.457 40.3865V0.154053H89.0175Z"/>
<path d="M114.923 62.9559H153.355V49.218H130.362V0.154053H114.923V62.9559Z"/>
<path d="M162.724 62.9559H203.6V49.218H178.164V38.4239H201.601V24.686H178.164V13.892H203.711V0.154053H162.724V62.9559Z"/>
<path d="M214.496 62.9559H229.936V42.2264H235.268L245.265 62.9559H262.037L250.485 39.5279C256.539 36.308 260.149 30.2057 260.149 21.4969C260.149 8.12695 251.679 0.154053 239.044 0.154053H214.496V62.9559ZM229.936 28.9791V13.7693H235.379C240.794 13.7693 244.043 16.0998 244.043 21.4969C244.043 26.8632 240.794 28.9791 235.379 28.9791H229.936Z"/>
<path d="M303.514 0.154053V38.9146C303.514 44.7716 299.71 48.9727 294.406 48.9727C289.102 48.9727 285.297 44.7716 285.297 38.9146V0.154053H269.858V40.3865C269.858 54.7377 279.688 63.6919 294.406 63.6919C309.012 63.6919 318.954 54.7377 318.954 40.3865V0.154053H303.514Z"/>
<path d="M329.419 62.9559H367.852V49.218H344.859V0.154053H329.419V62.9559Z"/>
<path d="M377.221 62.9559H418.097V49.218H392.66V38.4239H416.097V24.686H392.66V13.892H418.208V0.154053H377.221V62.9559Z"/>
<path d="M428.993 62.9559H444.433V42.2264H449.764L459.761 62.9559H476.534L464.982 39.5279C471.035 36.308 474.645 30.2057 474.645 21.4969C474.645 8.12695 466.176 0.154053 453.541 0.154053H428.993V62.9559ZM444.433 28.9791V13.7693H449.875C455.29 13.7693 458.539 16.0998 458.539 21.4969C458.539 26.8632 455.29 28.9791 449.875 28.9791H444.433Z"/>
</mask>
<path d="M0 62.9559H15.4396V42.2264H20.7712L30.7681 62.9559H47.5406L35.9886 39.5279C42.0423 36.308 45.6523 30.2057 45.6523 21.4969C45.6523 8.12695 37.1827 0.154053 24.5478 0.154053H0V62.9559ZM15.4396 28.9791V13.7693H20.8823C26.2973 13.7693 29.5462 16.0998 29.5462 21.4969C29.5462 26.8632 26.2973 28.9791 20.8823 28.9791H15.4396Z" stroke="#17191C" stroke-width="2" mask="url(#path-2-inside-1)"/>
<path d="M89.0175 0.154053V38.9146C89.0175 44.7716 85.2131 48.9727 79.9092 48.9727C74.6053 48.9727 70.801 44.7716 70.801 38.9146V0.154053H55.3614V40.3865C55.3614 54.7377 65.1917 63.6919 79.9092 63.6919C94.5157 63.6919 104.457 54.7377 104.457 40.3865V0.154053H89.0175Z" stroke="#17191C" stroke-width="2" mask="url(#path-2-inside-1)"/>
<path d="M114.923 62.9559H153.355V49.218H130.362V0.154053H114.923V62.9559Z" stroke="#17191C" stroke-width="2" mask="url(#path-2-inside-1)"/>
<path d="M162.724 62.9559H203.6V49.218H178.164V38.4239H201.601V24.686H178.164V13.892H203.711V0.154053H162.724V62.9559Z" stroke="#17191C" stroke-width="2" mask="url(#path-2-inside-1)"/>
<path d="M214.496 62.9559H229.936V42.2264H235.268L245.265 62.9559H262.037L250.485 39.5279C256.539 36.308 260.149 30.2057 260.149 21.4969C260.149 8.12695 251.679 0.154053 239.044 0.154053H214.496V62.9559ZM229.936 28.9791V13.7693H235.379C240.794 13.7693 244.043 16.0998 244.043 21.4969C244.043 26.8632 240.794 28.9791 235.379 28.9791H229.936Z" stroke="#17191C" stroke-width="2" mask="url(#path-2-inside-1)"/>
<path d="M303.514 0.154053V38.9146C303.514 44.7716 299.71 48.9727 294.406 48.9727C289.102 48.9727 285.297 44.7716 285.297 38.9146V0.154053H269.858V40.3865C269.858 54.7377 279.688 63.6919 294.406 63.6919C309.012 63.6919 318.954 54.7377 318.954 40.3865V0.154053H303.514Z" stroke="#17191C" stroke-width="2" mask="url(#path-2-inside-1)"/>
<path d="M329.419 62.9559H367.852V49.218H344.859V0.154053H329.419V62.9559Z" stroke="#17191C" stroke-width="2" mask="url(#path-2-inside-1)"/>
<path d="M377.221 62.9559H418.097V49.218H392.66V38.4239H416.097V24.686H392.66V13.892H418.208V0.154053H377.221V62.9559Z" stroke="#17191C" stroke-width="2" mask="url(#path-2-inside-1)"/>
<path d="M428.993 62.9559H444.433V42.2264H449.764L459.761 62.9559H476.534L464.982 39.5279C471.035 36.308 474.645 30.2057 474.645 21.4969C474.645 8.12695 466.176 0.154053 453.541 0.154053H428.993V62.9559ZM444.433 28.9791V13.7693H449.875C455.29 13.7693 458.539 16.0998 458.539 21.4969C458.539 26.8632 455.29 28.9791 449.875 28.9791H444.433Z" stroke="#17191C" stroke-width="2" mask="url(#path-2-inside-1)"/>
</svg>
