<svg width="312" height="43" viewBox="0 0 312 43" fill="none" xmlns="http://www.w3.org/2000/svg">
<path d="M1 41.5251H11.0439V28.1486H14.5123L21.0156 41.5251H31.9266L24.4117 26.4073C28.3498 24.3296 30.6982 20.3919 30.6982 14.7722C30.6982 6.14479 25.1885 1 16.9691 1H1V41.5251ZM11.0439 19.6004V9.78571H14.5846C18.1072 9.78571 20.2208 11.2896 20.2208 14.7722C20.2208 18.235 18.1072 19.6004 14.5846 19.6004H11.0439Z" stroke="#17191C"/>
<path d="M58.9087 1V26.0116C58.9087 29.791 56.4338 32.5019 52.9835 32.5019C49.5331 32.5019 47.0583 29.791 47.0583 26.0116V1H37.0143V26.9614C37.0143 36.222 43.4092 42 52.9835 42C62.4854 42 68.9526 36.222 68.9526 26.9614V1H58.9087Z" stroke="#17191C"/>
<path d="M75.761 41.5251H100.762V32.6602H85.8049V1H75.761V41.5251Z" stroke="#17191C"/>
<path d="M106.857 41.5251H133.448V32.6602H116.901V25.695H132.148V16.8301H116.901V9.86487H133.521V1H106.857V41.5251Z" stroke="#17191C"/>
<path d="M140.537 41.5251H150.581V28.1486H154.049L160.552 41.5251H171.463L163.948 26.4073C167.887 24.3296 170.235 20.3919 170.235 14.7722C170.235 6.14479 164.725 1 156.506 1H140.537V41.5251ZM150.581 19.6004V9.78571H154.121C157.644 9.78571 159.757 11.2896 159.757 14.7722C159.757 18.235 157.644 19.6004 154.121 19.6004H150.581Z" stroke="#17191C"/>
<path d="M198.445 1V26.0116C198.445 29.791 195.97 32.5019 192.52 32.5019C189.07 32.5019 186.595 29.791 186.595 26.0116V1H176.551V26.9614C176.551 36.222 182.946 42 192.52 42C202.022 42 208.489 36.222 208.489 26.9614V1H198.445Z" stroke="#17191C"/>
<path d="M215.298 41.5251H240.299V32.6602H225.342V1H215.298V41.5251Z" stroke="#17191C"/>
<path d="M246.394 41.5251H272.985V32.6602H256.438V25.695H271.684V16.8301H256.438V9.86487H273.057V1H246.394V41.5251Z" stroke="#17191C"/>
<path d="M280.073 41.5251H290.117V28.1486H293.586L300.089 41.5251H311L303.485 26.4073C307.423 24.3296 309.772 20.3919 309.772 14.7722C309.772 6.14479 304.262 1 296.043 1H280.073V41.5251ZM290.117 19.6004V9.78571H293.658C297.181 9.78571 299.294 11.2896 299.294 14.7722C299.294 18.235 297.181 19.6004 293.658 19.6004H290.117Z" stroke="#17191C"/>
</svg>
