<svg width="135" height="16" viewBox="0 0 135 16" fill="none" xmlns="http://www.w3.org/2000/svg">
<path d="M0 15.8147H4.36063V10.5946H5.86645L8.68988 15.8147H13.427L10.1643 9.91506C11.8741 9.10425 12.8937 7.56757 12.8937 5.37452C12.8937 2.00772 10.5016 0 6.93308 0H0V15.8147ZM4.36063 7.25869V3.42857H5.89783C7.42718 3.42857 8.3448 4.01545 8.3448 5.37452C8.3448 6.72587 7.42718 7.25869 5.89783 7.25869H4.36063Z" fill="#17191C"/>
<path d="M25.1414 0V9.76062C25.1414 11.2355 24.0669 12.2934 22.5689 12.2934C21.0709 12.2934 19.9965 11.2355 19.9965 9.76062V0H15.6358V10.1313C15.6358 13.7452 18.4122 16 22.5689 16C26.6942 16 29.502 13.7452 29.502 10.1313V0H25.1414Z" fill="#17191C"/>
<path d="M32.4579 15.8147H43.3124V12.3552H36.8185V0H32.4579V15.8147Z" fill="#17191C"/>
<path d="M45.9585 15.8147H57.5032V12.3552H50.3191V9.63707H56.9385V6.17761H50.3191V3.45946H57.5345V0H45.9585V15.8147Z" fill="#17191C"/>
<path d="M60.5806 15.8147H64.9413V10.5946H66.4471L69.2705 15.8147H74.0076L70.745 9.91506C72.4547 9.10425 73.4743 7.56757 73.4743 5.37452C73.4743 2.00772 71.0822 0 67.5137 0H60.5806V15.8147ZM64.9413 7.25869V3.42857H66.4785C68.0078 3.42857 68.9254 4.01545 68.9254 5.37452C68.9254 6.72587 68.0078 7.25869 66.4785 7.25869H64.9413Z" fill="#17191C"/>
<path d="M85.722 0V9.76062C85.722 11.2355 84.6475 12.2934 83.1495 12.2934C81.6516 12.2934 80.5771 11.2355 80.5771 9.76062V0H76.2165V10.1313C76.2165 13.7452 78.9928 16 83.1495 16C87.2749 16 90.0826 13.7452 90.0826 10.1313V0H85.722Z" fill="#17191C"/>
<path d="M93.0385 15.8147H103.893V12.3552H97.3991V0H93.0385V15.8147Z" fill="#17191C"/>
<path d="M106.539 15.8147H118.084V12.3552H110.9V9.63707H117.519V6.17761H110.9V3.45946H118.115V0H106.539V15.8147Z" fill="#17191C"/>
<path d="M121.161 15.8147H125.522V10.5946H127.028L129.851 15.8147H134.588L131.326 9.91506C133.035 9.10425 134.055 7.56757 134.055 5.37452C134.055 2.00772 131.663 0 128.094 0H121.161V15.8147ZM125.522 7.25869V3.42857H127.059C128.588 3.42857 129.506 4.01545 129.506 5.37452C129.506 6.72587 128.588 7.25869 127.059 7.25869H125.522Z" fill="#17191C"/>
</svg>
